<?xml version="1.0" encoding="utf-8"?>
<!-- Generator: Adobe Illustrator 16.0.0, SVG Export Plug-In . SVG Version: 6.00 Build 0)  -->
<!DOCTYPE svg PUBLIC "-//W3C//DTD SVG 1.1//EN" "http://www.w3.org/Graphics/SVG/1.1/DTD/svg11.dtd">
<svg version="1.1" id="Layer_1" xmlns="http://www.w3.org/2000/svg" xmlns:xlink="http://www.w3.org/1999/xlink" x="0px" y="0px"
	 width="100px" height="100px" viewBox="0 0 100 100" enable-background="new 0 0 100 100" xml:space="preserve">
<g id="그룹_4962" transform="translate(-1225 -1049)">
	<g id="사각형_1847">
		<rect x="1245" y="1056.579" fill="none" width="60" height="60"/>
	</g>
	<g id="그룹_4954" transform="translate(-70.341 1570.356)">
		<g id="패스_732">
			<path fill="#E8E8E8" d="M1370.349-504.238c-2.852-2.91-6.758-4.547-10.833-4.539c-4.069-0.008-7.97,1.624-10.819,4.527
				l-3.107,3.028l-3.1-3.016c-2.853-2.91-6.758-4.546-10.833-4.539c-4.075-0.007-7.98,1.629-10.833,4.539
				c-3.306,3.342-4.919,8.003-4.386,12.674c0.052,0.495,0.495,0.853,0.989,0.801c0.001-0.001,0.002-0.001,0.003-0.001
				c0.495-0.052,0.853-0.495,0.8-0.989c0-0.001,0-0.003,0-0.003c-0.473-4.132,0.954-8.255,3.878-11.211
				c2.516-2.565,5.959-4.007,9.552-4c3.6-0.005,7.048,1.443,9.565,4.016l3.737,3.639c0.35,0.341,0.905,0.341,1.256,0l3.75-3.651
				c2.519-2.565,5.96-4.007,9.554-4c3.594-0.007,7.037,1.435,9.553,4c5.275,5.375,5.275,13.985,0,19.36l-23.481,23.759
				l-19.745-19.978c-0.349-0.354-0.919-0.356-1.273-0.007l0,0c-0.353,0.35-0.354,0.918-0.008,1.271l20.386,20.624
				c0.169,0.172,0.399,0.27,0.64,0.27c0.241,0,0.472-0.098,0.642-0.27l24.123-24.405
				C1376.322-488.418,1376.32-498.16,1370.349-504.238z"/>
		</g>
		<g id="패스_733">
			<path fill="#E8E8E8" d="M1330.972-485.883l1.787-2.084l4.811,10.423c0.149,0.336,0.49,0.544,0.856,0.522
				c0.365-0.016,0.684-0.249,0.808-0.593l4.948-13.7l5.5,17.271c0.106,0.331,0.392,0.571,0.735,0.619
				c0.041,0.006,0.08,0.008,0.121,0.008c0.305,0,0.588-0.153,0.754-0.408l6.75-10.349c0.271-0.416,0.154-0.973-0.262-1.244
				s-0.978-0.154-1.246,0.262l-5.713,8.76l-5.727-17.986c-0.117-0.368-0.455-0.62-0.84-0.627c-0.385-0.008-0.733,0.229-0.864,0.594
				l-5.1,14.135l-4.48-9.707c-0.128-0.279-0.39-0.473-0.694-0.516c-0.303-0.041-0.607,0.074-0.807,0.307l-2.43,2.835h-9.034
				c-0.497,0-0.9,0.403-0.9,0.899l0,0c0,0.498,0.403,0.9,0.9,0.9l0,0h9.448C1330.557-485.569,1330.803-485.686,1330.972-485.883z"/>
		</g>
	</g>
</g>
<g>
	<path fill="#E8E8E8" d="M39.668,85.281c1.955,0,4.653-0.014,7.004-0.372l0.084,0.731c-2.423,0.454-5.025,0.467-6.968,0.467
		L39.668,85.281z M45.964,81.011c0,1.5-1.199,2.531-2.878,2.531c-1.667,0-2.879-1.031-2.879-2.531c0-1.512,1.211-2.53,2.879-2.53
		C44.765,78.48,45.964,79.501,45.964,81.011z M41.168,81.011c0,0.996,0.803,1.69,1.919,1.69c1.115,0,1.919-0.694,1.919-1.69
		c0-1.008-0.804-1.69-1.919-1.69C41.971,79.32,41.168,80.003,41.168,81.011z M48.363,77.689v10.779H47.38V77.689H48.363z"/>
	<path fill="#E8E8E8" d="M60.398,86.313v0.806h-9.774v-0.806h2.735v-2.039h-1.512v-3.32h6.381v-1.667h-6.404V78.48h7.363v3.263
		h-6.369v1.728h6.621v0.805h-1.683v2.039L60.398,86.313L60.398,86.313z M54.33,86.313h2.459v-2.039H54.33V86.313z"/>
</g>
<g>
	<rect x="0" y="-0.125" fill="none" width="100" height="100"/>
</g>
<g>
	<rect x="0.24" fill="none" width="100" height="100"/>
</g>
<g>
	<rect x="0.011" fill="none" width="100" height="100"/>
</g>
<g>
	<rect x="0.011" fill="none" width="100" height="100"/>
</g>
<g>
	<rect x="0" y="0.072" fill="none" width="100" height="100"/>
</g>
<g>
	<rect x="-0.152" y="-0.073" fill="none" width="100" height="100"/>
</g>
<g>
	<rect x="0" y="0.072" fill="none" width="100" height="100"/>
</g>
<g>
	<rect x="0" y="0.072" fill="none" width="100" height="100"/>
</g>
</svg>
