<?xml version="1.0" encoding="utf-8"?>
<!-- Generator: Adobe Illustrator 16.0.0, SVG Export Plug-In . SVG Version: 6.00 Build 0)  -->
<!DOCTYPE svg PUBLIC "-//W3C//DTD SVG 1.1//EN" "http://www.w3.org/Graphics/SVG/1.1/DTD/svg11.dtd">
<svg version="1.1" id="Layer_1" xmlns="http://www.w3.org/2000/svg" xmlns:xlink="http://www.w3.org/1999/xlink" x="0px" y="0px"
	 width="100px" height="100px" viewBox="0 0 100 100" enable-background="new 0 0 100 100" xml:space="preserve">
<g id="그룹_4958" transform="translate(-753 -1049)">
	<g id="사각형_1844">
		<rect x="773" y="1058.365" fill="none" width="60" height="60"/>
	</g>
	<g id="그룹_4951" transform="translate(226.133 1569.801)">
		<g id="패스_717">
			<path fill="#E8E8E8" d="M551.5-454.444h9v-18h-9V-454.444z M553.3-470.643h5.4v14.398h-5.4V-470.643z"/>
		</g>
		<g id="패스_718">
			<path fill="#E8E8E8" d="M579.4-454.444h9v-53.991h-9V-454.444z M581.2-506.635h5.399v50.395H581.2V-506.635z"/>
		</g>
		<g id="패스_719">
			<path fill="#E8E8E8" d="M593.346-493.135v38.7h9v-38.7H593.346z M600.547-456.237h-5.4v-35.102h5.4V-456.237z"/>
		</g>
		<g id="패스_720">
			<path fill="#E8E8E8" d="M565.451-454.444h9v-30.602h-9V-454.444z M567.251-483.243h5.4v27h-5.4V-483.243z"/>
		</g>
		<g id="패스_721">
			<path fill="#E8E8E8" d="M568.15-500.343v1.8h3.677l-20.96,20.96l1.272,1.271l20.96-20.96v3.677h1.8v-6.749L568.15-500.343
				L568.15-500.343z"/>
		</g>
	</g>
</g>
<g>
	<path fill="#E8E8E8" d="M49.358,82.143v0.791h-9.775v-0.791h7.232c0.312-1.344,0.312-2.326,0.312-3.166h-6.296v-0.791h7.268v0.791
		c0,0.84,0,1.822-0.288,3.166H49.358z M40.795,84.396h7.34v3.826h-7.34V84.396z M41.754,87.432h5.409v-2.242h-5.409V87.432z"/>
	<path fill="#E8E8E8" d="M57.939,83.438v1.487c0.791,0.313,1.232,0.841,1.232,1.523c0,1.233-1.379,1.918-3.682,1.918
		c-2.305,0-3.686-0.685-3.686-1.918c0-0.695,0.469-1.235,1.271-1.535v-1.478H50.63v-0.791h9.728v0.791L57.939,83.438L57.939,83.438z
		 M51.715,79.84c0-1.271,1.451-2.015,3.778-2.015c2.339,0,3.776,0.741,3.776,2.015c0,1.274-1.438,2.003-3.776,2.003
		C53.166,81.843,51.715,81.111,51.715,79.84z M52.723,79.84c0,0.778,1.067,1.247,2.771,1.247c1.703,0,2.771-0.469,2.771-1.247
		c0-0.792-1.068-1.247-2.771-1.247C53.79,78.593,52.723,79.048,52.723,79.84z M55.493,85.297c-1.69,0-2.687,0.432-2.687,1.151
		c0,0.741,0.992,1.149,2.687,1.149c1.679,0,2.687-0.408,2.687-1.149C58.18,85.729,57.172,85.297,55.493,85.297z M56.956,83.438
		h-2.89v1.213c0.432-0.071,0.896-0.106,1.427-0.106c0.54,0,1.03,0.035,1.463,0.119V83.438z"/>
</g>
<g>
	<rect y="0.016" fill="none" width="100" height="100"/>
</g>
<g>
	<rect y="0.016" fill="none" width="100" height="100"/>
</g>
<g>
	<rect y="0.088" fill="none" width="100" height="100"/>
</g>
<g>
	<rect x="-0.152" y="-0.057" fill="none" width="100" height="100"/>
</g>
<g>
	<rect y="0.088" fill="none" width="100" height="100"/>
</g>
<g>
	<rect y="0.088" fill="none" width="100" height="100"/>
</g>
</svg>
