<?xml version="1.0" encoding="utf-8"?>
<!-- Generator: Adobe Illustrator 16.0.0, SVG Export Plug-In . SVG Version: 6.00 Build 0)  -->
<!DOCTYPE svg PUBLIC "-//W3C//DTD SVG 1.1//EN" "http://www.w3.org/Graphics/SVG/1.1/DTD/svg11.dtd">
<svg version="1.1" id="Layer_1" xmlns="http://www.w3.org/2000/svg" xmlns:xlink="http://www.w3.org/1999/xlink" x="0px" y="0px"
	 width="100px" height="100px" viewBox="0 0 100 100" enable-background="new 0 0 100 100" xml:space="preserve">
<g id="그룹_4959" transform="translate(-871 -1049)">
	<g id="사각형_1843">
		<rect x="891" y="1059.517" fill="none" width="60" height="60"/>
	</g>
	<g id="그룹_4952" transform="translate(191.02 1569.299)">
		<g id="패스_722">
			<path fill="#E8E8E8" d="M754.021-494.093v37.157c0,1.293-1.049,2.342-2.34,2.344h-42.559c-1.293-0.002-2.341-1.049-2.342-2.344
				v-37.157h-1.8v37.157c0.003,2.287,1.855,4.141,4.142,4.143h42.559c2.285-0.002,4.139-1.855,4.141-4.143v-37.157H754.021z"/>
		</g>
		<g id="패스_723">
			<path fill="#E8E8E8" d="M709.859-459.506c0.152,0.107,0.334,0.166,0.52,0.166c0.103,0,0.204-0.018,0.3-0.051
				c0.081-0.029,8.219-2.801,19.505,0.021c0.017,0,0.033,0,0.05,0.009c0.017,0.006,0.062,0.01,0.094,0.014
				c0.038,0.002,0.075,0.002,0.113,0c0.032,0,0.063-0.006,0.094-0.01c0.036-0.006,0.075-0.019,0.112-0.025
				c0.019-0.004,0.035-0.006,0.052-0.012c0.081-0.027,8.256-2.789,19.508,0.021c0.069,0.021,0.146,0.027,0.217,0.027
				c0.201,0,0.396-0.066,0.558-0.191c0.22-0.17,0.347-0.432,0.347-0.709V-497.5c0-0.366-0.222-0.695-0.562-0.833
				c-1.14-0.463-2.304-0.854-3.488-1.171v-7.381c0-0.323-0.172-0.621-0.45-0.781c-0.279-0.161-0.621-0.161-0.9,0l-15.658,9.145
				c-11.282-4.375-19.931,0.029-20.3,0.222c-0.297,0.156-0.483,0.464-0.482,0.8v37.254
				C709.481-459.951,709.623-459.676,709.859-459.506z M746.888-471.051c0.24-0.168,0.385-0.443,0.385-0.738v-25.834
				c0.754,0.216,1.506,0.457,2.25,0.741v35.5c-5.131-1.185-10.438-1.385-15.643-0.588L746.888-471.051z M731.527-497.169
				l13.947-8.146v33.057l-13.947,9.74V-497.169z M711.279-496.918c5.859-2.3,12.373-2.288,18.222,0.035v35.5
				c-3.123-0.703-6.314-1.063-9.515-1.068c-2.933-0.021-5.857,0.316-8.707,1.008V-496.918z"/>
		</g>
	</g>
</g>
<g>
	<path fill="#E8E8E8" d="M45.98,79.512h-6.344v-0.791h2.674v-1.199h0.982v1.199h2.688V79.512z M42.801,83.949
		c-1.522,0-2.565-0.756-2.565-1.943c0-1.175,1.043-1.941,2.565-1.941c1.535,0,2.579,0.77,2.579,1.955
		C45.379,83.193,44.336,83.949,42.801,83.949z M40.966,84.896h6.98v3.453h-0.983V85.7h-5.997V84.896z M42.801,83.193
		c0.983,0,1.644-0.469,1.644-1.188c0-0.707-0.66-1.175-1.644-1.175c-0.982,0-1.631,0.468-1.631,1.188
		C41.17,82.738,41.817,83.193,42.801,83.193z M49.542,81.37h-1.595v2.938h-0.984v-6.718h0.983v2.964h1.595L49.542,81.37
		L49.542,81.37z"/>
	<path fill="#E8E8E8" d="M60.363,86.023v0.804h-9.727v-0.804h2.387V82.46h0.974v3.563h1.69V82.46h0.972v3.563H60.363z
		 M58.241,79.464h-6.597V78.66h7.58v1.188c0,1.367,0,2.771-0.386,4.785l-0.971-0.119c0.37-1.92,0.37-3.334,0.37-4.666L58.241,79.464
		L58.241,79.464z"/>
</g>
<g>
	<rect fill="none" width="100" height="100"/>
</g>
<g>
	<rect x="-0.152" y="-0.145" fill="none" width="100" height="100"/>
</g>
<g>
	<rect fill="none" width="100" height="100"/>
</g>
<g>
	<rect fill="none" width="100" height="100"/>
</g>
</svg>
