<?xml version="1.0" encoding="utf-8"?>
<!-- Generator: Adobe Illustrator 16.0.0, SVG Export Plug-In . SVG Version: 6.00 Build 0)  -->
<!DOCTYPE svg PUBLIC "-//W3C//DTD SVG 1.1//EN" "http://www.w3.org/Graphics/SVG/1.1/DTD/svg11.dtd">
<svg version="1.1" id="Layer_1" xmlns="http://www.w3.org/2000/svg" xmlns:xlink="http://www.w3.org/1999/xlink" x="0px" y="0px"
	 width="100px" height="100px" viewBox="0 0 100 100" enable-background="new 0 0 100 100" xml:space="preserve">
<g id="그룹_4963" transform="translate(-1343 -1049)">
	<g id="사각형_1849">
		<rect x="1363" y="1058.433" fill="none" width="60" height="60.001"/>
	</g>
	<g id="그룹_4955" transform="translate(-105.957 1569.125)">
		<g id="패스_734">
			<path fill="#E8E8E8" d="M1490.154-460.9c0.497,0,0.9-0.4,0.9-0.896l0,0v-38.695c0-0.497-0.403-0.9-0.9-0.9l0,0h-7.649
				c-0.497,0-0.9,0.403-0.9,0.9l0,0v38.695c0,0.496,0.403,0.896,0.9,0.896l0,0H1490.154z M1483.405-499.593h5.849v36.894h-5.849
				V-499.593z"/>
		</g>
		<g id="패스_735">
			<path fill="#E8E8E8" d="M1496-494.194h13.048c0.496,0,0.897-0.403,0.897-0.899l0,0v-5.4c0-0.497-0.401-0.9-0.897-0.9l0,0H1496
				c-0.497,0-0.9,0.403-0.9,0.9l0,0v5.4C1495.101-494.599,1495.503-494.194,1496-494.194L1496-494.194z M1496.9-499.594h11.249v3.6
				H1496.9V-499.594z"/>
		</g>
		<g id="패스_736">
			<path fill="#E8E8E8" d="M1495.101-484.297c0,0.498,0.403,0.9,0.9,0.9l0,0h13.048c0.496,0,0.898-0.402,0.898-0.9l0,0v-5.398
				c0-0.498-0.402-0.9-0.898-0.9l0,0H1496c-0.497,0-0.9,0.402-0.9,0.9l0,0L1495.101-484.297L1495.101-484.297z M1496.9-488.797
				h11.249v3.602H1496.9V-488.797z"/>
		</g>
		<g id="패스_737">
			<path fill="#E8E8E8" d="M1495.101-473.5c0,0.498,0.403,0.9,0.9,0.9l0,0h13.048c0.496,0,0.898-0.402,0.898-0.9l0,0v-5.4
				c0-0.496-0.402-0.898-0.898-0.898l0,0H1496c-0.497,0-0.9,0.402-0.9,0.898l0,0L1495.101-473.5L1495.101-473.5z M1496.9-478h11.249
				v3.6H1496.9V-478z"/>
		</g>
		<g id="패스_738">
			<path fill="#E8E8E8" d="M1495.101-462.699c0,0.496,0.403,0.9,0.9,0.9l0,0h13.048c0.496,0,0.898-0.404,0.898-0.9l0,0v-5.4
				c0-0.496-0.402-0.898-0.898-0.898l0,0H1496c-0.497,0-0.9,0.402-0.9,0.898l0,0L1495.101-462.699L1495.101-462.699z
				 M1496.9-467.199h11.249v3.6H1496.9V-467.199z"/>
		</g>
		<g id="패스_739">
			<path fill="#E8E8E8" d="M1523.9-502.293h-6.4c-0.52-3.112-3.211-5.395-6.365-5.4h-30.718c-3.567,0.004-6.458,2.896-6.462,6.463
				v39.879c0,0.498,0.403,0.898,0.9,0.898l0,0c0.497,0,0.9-0.4,0.9-0.898l0,0v-39.879c0.003-2.574,2.089-4.66,4.663-4.663h30.719
				c2.572,0.003,4.658,2.089,4.66,4.663v39.879c0,0.498,0.402,0.898,0.9,0.898l0,0c0.496,0,0.9-0.4,0.9-0.898l0,0v-16.647h6.299
				c0.498,0,0.898-0.404,0.898-0.9l0,0v-22.5C1524.795-501.893,1524.395-502.292,1523.9-502.293z M1523-479.793h-5.398v-20.7H1523
				V-479.793z"/>
		</g>
		<g id="패스_740">
			<path fill="#E8E8E8" d="M1523.9-456.852h-49.042c-0.497,0-0.9,0.4-0.9,0.896l0,0c0,0.498,0.403,0.9,0.9,0.9l0,0h49.042
				c0.496,0,0.9-0.402,0.9-0.9l0,0C1524.801-456.447,1524.396-456.852,1523.9-456.852L1523.9-456.852z"/>
		</g>
	</g>
</g>
<g>
	<path fill="#E8E8E8" d="M49.487,86.449v0.804h-9.75v-0.804h4.377v-1.512c-1.896-0.107-3.046-0.84-3.046-2.039
		c0-1.295,1.354-2.039,3.537-2.039c2.147,0,3.502,0.744,3.502,2.039c0,1.199-1.139,1.92-3.01,2.039v1.512H49.487z M48.948,80.129
		h-8.731v-0.805h3.898v-1.402h0.982v1.402h3.851V80.129z M44.604,84.184c1.548,0,2.508-0.479,2.508-1.283
		c0-0.791-0.959-1.271-2.508-1.271c-1.57,0-2.542,0.479-2.542,1.271C42.062,83.703,43.035,84.184,44.604,84.184z"/>
	<path fill="#E8E8E8" d="M55.911,82.828c-1.312,0.238-2.39,0.287-3.959,0.287h-0.687v-4.713h4.066v0.777h-3.131v1.15h2.711v0.756
		h-2.711v1.26c1.393,0,2.41-0.049,3.623-0.273L55.911,82.828z M60.264,87.625v0.768h-7.484v-2.578h6.104v-0.981h-6.129v-0.771h7.101
		v2.483H53.75v1.079H60.264z M56.831,80.969h-1.427v-0.792h1.427v-2.219h0.938v5.505h-0.938V80.969z M59.854,83.57h-0.944v-5.805
		h0.944V83.57z"/>
</g>
<g>
	<rect fill="none" width="100" height="100"/>
</g>
<g>
	<rect fill="none" width="100" height="100"/>
</g>
<g>
	<rect fill="none" width="100" height="100"/>
</g>
<g>
	<rect fill="none" width="100" height="100"/>
</g>
<g>
	<rect x="0.266" y="0.145" fill="none" width="100" height="100"/>
</g>
<g>
	<rect x="0.114" fill="none" width="99.999" height="100"/>
</g>
<g>
	<rect x="0.266" y="0.145" fill="none" width="100" height="100"/>
</g>
</svg>
