<?xml version="1.0" encoding="utf-8"?>
<!-- Generator: Adobe Illustrator 16.0.0, SVG Export Plug-In . SVG Version: 6.00 Build 0)  -->
<!DOCTYPE svg PUBLIC "-//W3C//DTD SVG 1.1//EN" "http://www.w3.org/Graphics/SVG/1.1/DTD/svg11.dtd">
<svg version="1.1" id="Layer_1" xmlns="http://www.w3.org/2000/svg" xmlns:xlink="http://www.w3.org/1999/xlink" x="0px" y="0px"
	 width="100px" height="100px" viewBox="0 0 100 100" enable-background="new 0 0 100 100" xml:space="preserve">
<g id="Group_5399" transform="translate(-871 -1049)">
	<g id="Rectangle_1843">
		<rect x="891.25" y="1058.824" fill="none" width="60" height="60"/>
	</g>
	<g id="Group_5402" transform="translate(558.47 59.5)">
		<g id="Group_5401" transform="translate(318 992.5)">
			<g id="Rectangle_2474">
				<path fill="#E8E8E8" d="M69.309,45.667H20.25c-0.552,0-1-0.447-1-1V10.324c0-0.552,0.448-1,1-1h49.059c0.554,0,1,0.448,1,1
					v34.344C70.309,45.221,69.862,45.667,69.309,45.667z M21.25,43.667h47.059V11.324H21.25V43.667z"/>
			</g>
			<g id="Rectangle_2475">
				<path fill="#E8E8E8" d="M64.307,40.667H25.25c-0.552,0-1-0.447-1-1V15.324c0-0.552,0.448-1,1-1h39.059c0.554,0,1,0.448,1,1
					v24.345C65.309,40.222,64.862,40.667,64.307,40.667z M26.25,38.667h37.059V16.324H26.25V38.667z"/>
			</g>
			<g id="Group_5400" transform="translate(6.863)">
				<g id="Path_2467">
					<path fill="none" stroke="#000000" stroke-width="2" stroke-linecap="round" stroke-linejoin="round" d="M20.25,9.824"/>
				</g>
				<g id="Path_2468">
					<path fill="none" stroke="#000000" stroke-width="2" stroke-linecap="round" stroke-linejoin="round" d="M55.583,9.824"/>
				</g>
			</g>
			<g id="Rectangle_2476">
				<path fill="#E8E8E8" d="M42.79,40.667h-10c-2.757,0-5-2.243-5-5v-4c0-2.757,2.243-5,5-5h10c2.758,0,5,2.243,5,5v4
					C47.79,38.426,45.548,40.667,42.79,40.667z M32.79,28.667c-1.654,0-3,1.346-3,3v4c0,1.654,1.346,3,3,3h10c1.654,0,3-1.346,3-3
					v-4c0-1.654-1.345-3-3-3H32.79z"/>
			</g>
			<g id="Line_467">
				<path fill="#E8E8E8" d="M34.629,40.667c-0.552,0-1-0.447-1-1v-12c0-0.553,0.448-1,1-1c0.552,0,1,0.447,1,1v12
					C35.629,40.222,35.18,40.667,34.629,40.667z"/>
			</g>
			<g id="Line_468">
				<path fill="#E8E8E8" d="M39.703,40.667c-0.552,0-1-0.447-1-1v-12c0-0.553,0.448-1,1-1c0.552,0,1,0.447,1,1v12
					C40.703,40.222,40.256,40.667,39.703,40.667z"/>
			</g>
		</g>
		<g id="Line_469">
			<path fill="#E8E8E8" d="M345.94,1056.295c-0.168,0-0.339-0.041-0.496-0.131c-0.479-0.275-0.646-0.885-0.372-1.365l10.365-18.126
				c0.275-0.48,0.886-0.646,1.365-0.372c0.479,0.273,0.646,0.885,0.372,1.364l-10.365,18.128
				C346.625,1056.115,346.286,1056.295,345.94,1056.295z"/>
		</g>
		<g id="Line_470">
			<path fill="#E8E8E8" d="M379.809,1056.295c-0.348,0-0.687-0.18-0.869-0.504l-10.365-18.127c-0.273-0.48-0.105-1.09,0.373-1.364
				c0.479-0.276,1.09-0.107,1.363,0.372l10.365,18.127c0.271,0.479,0.105,1.09-0.373,1.363
				C380.149,1056.254,379.977,1056.295,379.809,1056.295z"/>
		</g>
	</g>
</g>
<g>
	<path fill="#E8E8E8" d="M46.552,79.391h-6.344V78.6h2.674V77.4h0.983V78.6h2.687C46.553,78.6,46.553,79.391,46.552,79.391z
		 M43.375,83.826c-1.523,0-2.566-0.756-2.566-1.941c0-1.176,1.043-1.939,2.566-1.939c1.535,0,2.579,0.768,2.579,1.953
		C45.953,83.072,44.91,83.826,43.375,83.826z M41.54,84.775h6.98v3.453h-0.983v-2.65H41.54V84.775z M43.375,83.072
		c0.983,0,1.643-0.469,1.643-1.188c0-0.707-0.66-1.176-1.643-1.176s-1.631,0.469-1.631,1.189
		C41.744,82.617,42.391,83.072,43.375,83.072z M50.114,81.248H48.52v2.938h-0.983v-6.715h0.983v2.961h1.595v0.816H50.114z"/>
	<path fill="#E8E8E8" d="M54.27,83.191c-1.063,0.049-2.098,0.063-2.983,0.063l-0.134-0.814c1.99,0,4.652-0.023,6.935-0.314
		l0.084,0.707c-0.946,0.146-1.942,0.252-2.914,0.314v2.123H54.27V83.191L54.27,83.191z M52.004,79.762
		c0-1.127,1.078-1.869,2.65-1.869c1.57,0,2.65,0.742,2.65,1.869c0,1.15-1.08,1.885-2.65,1.885
		C53.082,81.646,52.004,80.912,52.004,79.762z M60.291,87.174v0.805h-7.604v-3.131h0.979v2.326H60.291z M52.939,79.762
		c0,0.695,0.694,1.15,1.715,1.15c1.02,0,1.715-0.455,1.715-1.15c0-0.686-0.695-1.141-1.715-1.141
		C53.634,78.621,52.939,79.076,52.939,79.762z M59.031,83.816v-6.357h0.982v8.189h-0.982v-1.104h-2.184v-0.73L59.031,83.816
		L59.031,83.816z"/>
</g>
<g>
	<rect x="0.25" fill="none" width="100" height="100"/>
</g>
<g>
	<rect fill="none" width="100" height="100"/>
</g>
</svg>
